<svg width="37" height="31" viewBox="0 0 37 31" fill="none" xmlns="http://www.w3.org/2000/svg">
<path d="M3.08333 7.74366C3.08333 7.03325 3.77092 6.45845 4.61729 6.45845L16.966 6.45845C17.3729 6.45845 17.763 6.59386 18.0507 6.83488C18.3384 7.07591 18.5 7.4028 18.5 7.74366C18.5 8.08452 18.3384 8.41142 18.0507 8.65244C17.763 8.89347 17.3729 9.02887 16.966 9.02887L4.61729 9.02887C3.76938 9.02887 3.08333 8.45408 3.08333 7.74366Z" fill="white"/>
<path d="M3.08319 15.5001C3.08319 14.7897 3.77078 14.2149 4.61715 14.2149L32.3826 14.2149C32.7894 14.2149 33.1796 14.3503 33.4672 14.5913C33.7549 14.8323 33.9165 15.1592 33.9165 15.5001C33.9165 15.8409 33.7549 16.1678 33.4672 16.4088C33.1796 16.6499 32.7894 16.7853 32.3826 16.7853L4.61715 16.7853C3.76924 16.7853 3.08319 16.2092 3.08319 15.5001Z" fill="white"/>
<path d="M4.61716 21.9713C4.21033 21.9713 3.82016 22.1067 3.53249 22.3477C3.24481 22.5887 3.0832 22.9156 3.0832 23.2565C3.0832 23.5973 3.24481 23.9242 3.53249 24.1653C3.82016 24.4063 4.21033 24.5417 4.61716 24.5417L23.1326 24.5417C23.334 24.5417 23.5335 24.5084 23.7196 24.4439C23.9057 24.3793 24.0748 24.2846 24.2172 24.1653C24.3597 24.0459 24.4727 23.9042 24.5498 23.7483C24.6269 23.5924 24.6665 23.4253 24.6665 23.2565C24.6665 23.0877 24.6269 22.9206 24.5498 22.7647C24.4727 22.6087 24.3597 22.467 24.2172 22.3477C24.0748 22.2284 23.9057 22.1337 23.7196 22.0691C23.5335 22.0045 23.334 21.9713 23.1326 21.9713L4.61716 21.9713Z" fill="white"/>
</svg>
